<svg width="195" height="51" viewBox="0 0 195 51" fill="none" xmlns="http://www.w3.org/2000/svg">
<path d="M130.782 39.7039L194.286 50.0239L130.974 38.6959L130.782 39.7039Z" fill="#231F20"/>
<path d="M5.43151 3.59876L0.718059 31.2316C0.477356 32.6428 1.42619 33.9819 2.83733 34.2226C4.24847 34.4633 5.58755 33.5145 5.82825 32.1033L10.5417 4.47043C10.7824 3.05929 9.83358 1.7202 8.42244 1.4795C7.0113 1.23879 5.67221 2.18762 5.43151 3.59876Z" fill="#D2D2D1"/>
<path d="M22.671 2.82735L16.7308 37.6524C16.4901 39.0635 17.4389 40.4026 18.85 40.6433L18.8973 40.6514C20.3085 40.8921 21.6476 39.9432 21.8883 38.5321L27.8285 3.70709C28.0692 2.29595 27.1204 0.956866 25.7092 0.716162L25.6619 0.708091C24.2508 0.467387 22.9117 1.41621 22.671 2.82735Z" fill="#D2D2D1"/>
<path d="M9.72356 9.53663L6.7373 27.0438L18.1879 28.9969L21.1742 11.4898L9.72356 9.53663Z" fill="#E6E6E5"/>
<path d="M124.335 34.7024L123.222 41.2321L125.162 41.563L126.275 35.0333L124.335 34.7024Z" fill="#D2D2D1"/>
<path d="M132.079 39.416C131.695 41.672 129.535 43.208 127.279 42.824L124.975 42.44L126.367 34.28L128.671 34.664C130.927 35.048 132.463 37.208 132.079 39.464V39.416Z" fill="#1B8878"/>
<path d="M125.118 30.2959L122.478 45.7039C121.95 48.9199 118.878 51.0799 115.662 50.5519L22.542 34.6639L27.15 7.59192L120.27 23.4799C123.486 24.0079 125.646 27.0799 125.118 30.2959Z" fill="#E6E6E5"/>
</svg>
