<svg width="93" height="32" viewBox="0 0 93 32" fill="none" xmlns="http://www.w3.org/2000/svg">
<g clip-path="url(#clip0_2110_15365)">
<path fill-rule="evenodd" clip-rule="evenodd" d="M39.7617 1.8756C40.0875 1.10698 40.6348 0.455323 41.3345 0C42.385 1.15502 42.8989 2.70061 42.7443 4.25455C42.6315 5.07121 42.3704 5.85862 41.9757 6.58129C41.6499 5.15684 41.0755 3.80341 40.2776 2.57738C40.1126 2.32883 39.9413 2.0949 39.7596 1.87351L39.7617 1.8756ZM41.1548 8.82867C41.2906 7.01155 40.8311 5.2007 39.8515 3.66556C38.7801 2.15338 37.1196 1.16546 35.2774 0.948241C34.2791 3.94335 37.1342 8.77018 41.1548 8.82867Z" fill="#9FCE2C"/>
<path d="M6.61254 10.5434C7.8699 10.5434 9.11473 10.7795 10.2865 11.2348C10.936 11.5 11.5396 11.8635 12.0785 12.3125C12.6007 12.7491 12.6299 13.0874 12.1955 13.6221C11.8989 13.9876 11.5939 14.3489 11.2848 14.704C11.0217 15.0737 10.5204 15.1823 10.1277 14.9505C9.97107 14.8732 9.82069 14.7834 9.67657 14.6852C8.78263 14.0503 7.72787 13.6785 6.63343 13.6075C6.1614 13.5699 5.68728 13.6367 5.24657 13.8038C5.04815 13.8853 4.86018 13.9918 4.691 14.1234C4.24612 14.4367 4.1396 15.0528 4.45289 15.4977C4.51346 15.5854 4.58865 15.6606 4.67429 15.7233C5.01473 15.9927 5.41784 16.1681 5.84601 16.235C6.55824 16.3812 7.27673 16.4982 7.98477 16.6527C8.6427 16.7947 9.29853 16.9409 9.93974 17.1415C10.6165 17.3378 11.2347 17.6949 11.7464 18.1795C12.8931 19.2865 13.2711 20.972 12.7072 22.4633C12.3709 23.4429 11.6942 24.27 10.8003 24.7921C9.95227 25.3498 8.98732 25.7028 7.9806 25.8239C6.30969 26.0787 4.60118 25.9221 3.00547 25.3644C2.19299 25.0741 1.43481 24.648 0.764359 24.1029C0.545052 23.9253 0.350809 23.7186 0.187895 23.4888C-0.0961593 23.1588 -0.0564752 22.6596 0.273529 22.3777C0.279795 22.3714 0.286061 22.3672 0.294416 22.361C0.340366 22.3108 0.388404 22.2649 0.44062 22.221C0.816575 21.914 1.18835 21.6028 1.57057 21.3062C1.89431 21.0117 2.38096 20.9929 2.72768 21.2582C2.85926 21.3501 2.98667 21.4503 3.10781 21.5568C4.21479 22.5301 5.67474 23.0043 7.14305 22.8706C7.6861 22.8518 8.20617 22.6387 8.6051 22.267C8.97688 21.9265 9.07087 21.3793 8.83485 20.9344C8.69073 20.6859 8.45681 20.5042 8.18111 20.4227C7.73623 20.2744 7.28299 20.1366 6.82558 20.0321C5.9212 19.8274 5.00638 19.6603 4.09991 19.4557C2.99085 19.251 1.98621 18.6682 1.25728 17.8056C0.0145384 16.2141 0.102261 13.9584 1.46405 12.4671C2.43318 11.4562 3.72813 10.8171 5.11917 10.6667C5.61417 10.6019 6.11336 10.5831 6.60836 10.5414L6.61254 10.5434Z" fill="#2E9092"/>
<path d="M18.6203 12.6258C18.683 12.5777 18.7415 12.5276 18.7958 12.4712C19.5853 11.5146 20.6985 10.8838 21.9246 10.7C23.0399 10.4786 24.1887 10.5121 25.2894 10.7919C27.4031 11.3036 29.0301 12.9892 29.4708 15.1175C29.6024 15.6668 29.6692 16.2307 29.6671 16.7947C29.6859 19.4347 29.6755 22.0727 29.6755 24.7127C29.6755 25.31 29.4792 25.5126 28.8818 25.5168C28.1278 25.5231 27.3738 25.5231 26.6198 25.5168C26.0016 25.5126 25.7969 25.3038 25.7969 24.6918C25.7969 22.457 25.8011 20.2221 25.7927 17.9873C25.7948 17.6239 25.7656 17.2625 25.7029 16.9054C25.5066 15.3681 24.2158 14.2048 22.6681 14.1651C22.2128 14.1317 21.7533 14.1609 21.3042 14.2528C19.8735 14.5557 18.8041 15.7545 18.6621 17.2103C18.6266 17.5048 18.6078 17.7993 18.6078 18.0959C18.6036 20.2493 18.6036 22.4047 18.6078 24.5602C18.6078 24.6542 18.5995 24.7503 18.6078 24.8422C18.6433 25.1764 18.401 25.475 18.0689 25.5105C18.0355 25.5147 18.0021 25.5147 17.9687 25.5126C17.1061 25.521 16.2456 25.5273 15.383 25.5126C15.0446 25.5377 14.7501 25.2829 14.725 24.9424C14.723 24.9111 14.723 24.8777 14.725 24.8464C14.7209 24.7524 14.725 24.6584 14.725 24.5644V5.09413C14.6916 4.75577 14.9381 4.45501 15.2764 4.42159C15.3203 4.41741 15.3642 4.41741 15.408 4.42159C16.2414 4.41115 17.0748 4.41115 17.9123 4.42159C18.4136 4.42786 18.6036 4.6409 18.6036 5.15679V12.1454C18.6036 12.2853 18.6141 12.4252 18.6203 12.6258Z" fill="#2E9092"/>
<path d="M52.7924 12.6822C52.8196 12.6091 52.8551 12.538 52.8969 12.4733C53.8367 11.3538 55.1985 10.6729 56.6585 10.5956C60.4201 10.2823 63.7766 12.9537 64.3154 16.6882C64.5514 18.1419 64.4428 19.631 64.0042 21.0367C63.0623 23.9002 60.4201 25.8635 57.4062 25.9346C56.3515 25.9617 55.3071 25.7382 54.3589 25.2766C53.8242 25.0176 53.348 24.65 52.9637 24.1947C52.9073 24.1216 52.8258 24.0715 52.736 24.0527V31.1039C52.7402 31.2125 52.7381 31.3191 52.7298 31.4277C52.7172 31.741 52.4624 31.9874 52.1491 31.9895C51.2468 32.002 50.3445 32.002 49.4423 31.9895C49.1269 31.9979 48.8658 31.7472 48.8574 31.4318C48.8574 31.4193 48.8574 31.4089 48.8574 31.3963C48.8491 31.2898 48.8533 31.1812 48.8533 31.0726V11.7673C48.8616 11.1909 49.0538 10.9966 49.6365 10.9924C50.3905 10.9883 51.1445 10.9883 51.8985 10.9924C52.4624 10.9966 52.665 11.2076 52.6692 11.782V12.6111L52.7924 12.6822ZM56.4329 14.1776C55.6727 14.1902 54.9354 14.445 54.3297 14.9045C52.477 16.3456 52.145 19.017 53.5861 20.8675C53.8681 21.2289 54.2043 21.5422 54.5866 21.7949C55.9818 22.6491 57.7634 22.5343 59.0375 21.5108C60.1194 20.619 60.6749 19.2384 60.5099 17.8453C60.3679 15.719 58.5612 14.092 56.4308 14.1755L56.4329 14.1776Z" fill="#2E9092"/>
<path d="M70.22 24.0507V31.102C70.22 31.2106 70.2263 31.3171 70.22 31.4257C70.22 31.739 69.9631 31.9917 69.6498 31.9917C68.7476 32.0064 67.8473 32.0064 66.9451 31.9917C66.6213 31.9938 66.3561 31.7328 66.354 31.409C66.354 31.4069 66.354 31.4027 66.354 31.4007C66.3456 31.2941 66.354 31.1855 66.354 31.0769V11.6547C66.3289 11.3163 66.5837 11.0218 66.9221 10.9968C66.9513 10.9947 66.9827 10.9947 67.0119 10.9968C67.5236 10.9842 68.0353 10.9926 68.547 10.9926C68.8708 10.9926 69.1924 10.9842 69.5162 10.9926C69.8483 10.9613 70.1428 11.2056 70.1741 11.5377C70.1783 11.5753 70.1783 11.6129 70.1741 11.6505C70.1866 11.968 70.1741 12.2875 70.1741 12.6948C70.2952 12.58 70.3516 12.534 70.3976 12.4797C71.3395 11.3623 72.6992 10.6814 74.1592 10.5999C77.8269 10.2866 81.1311 12.8181 81.7806 16.4418C82.0647 17.9415 81.9832 19.4892 81.5446 20.9512C80.6277 23.869 77.9501 25.8762 74.8923 25.9389C73.7979 25.9639 72.7139 25.7154 71.7406 25.2162C71.1934 24.9238 70.713 24.5207 70.3287 24.034L70.2242 24.0528L70.22 24.0507ZM70.1992 17.9122C70.1156 19.0965 70.5145 20.264 71.3082 21.1455C72.7494 22.6973 75.1743 22.785 76.7261 21.3439C76.8222 21.2541 76.9141 21.1601 77.0018 21.0598C77.8561 20.0928 78.2112 18.7853 77.9668 17.5196C77.6911 15.4038 75.7528 13.9125 73.6371 14.1882C73.1525 14.2509 72.6846 14.4054 72.2585 14.6435C71.0179 15.2639 70.2242 16.5233 70.2012 17.9122H70.1992Z" fill="#2E9092"/>
<path d="M87.606 12.818C87.7376 12.6384 87.842 12.5005 87.9444 12.3648C88.8028 11.2139 90.221 10.6228 91.6433 10.8254C91.942 10.8192 92.1885 11.0552 92.1947 11.3539C92.1947 11.3539 92.1947 11.358 92.1947 11.3601C92.2115 11.5481 92.2198 11.7361 92.2135 11.9241C92.2135 12.6384 92.2198 13.3506 92.2135 14.0649C92.2073 14.6393 91.9754 14.8628 91.4052 14.8941C90.8956 14.8983 90.3839 14.9338 89.8784 15.0027C88.8864 15.1594 88.0989 15.9238 87.9151 16.9117C87.8003 17.3817 87.7397 17.8641 87.7376 18.3466C87.7188 20.4603 87.7292 22.574 87.7292 24.6877C87.7292 25.306 87.5266 25.5148 86.9147 25.519C86.1481 25.5232 85.3795 25.5232 84.613 25.519C84.0595 25.5148 83.8548 25.3101 83.8548 24.7629V11.757C83.8548 11.2035 84.0574 10.9967 84.6046 10.9946C85.3315 10.9884 86.0583 10.9884 86.7852 10.9946C87.3345 10.9988 87.5392 11.2056 87.5475 11.7528C87.5517 12.0619 87.5517 12.371 87.5559 12.6822C87.5663 12.7303 87.583 12.7762 87.6039 12.8222L87.606 12.818Z" fill="#2E9092"/>
<path d="M39.2687 10.5706C41.94 10.5184 44.4443 11.8656 45.8729 14.1255C46.7961 15.5061 47.2118 17.1645 47.0447 18.8166C46.7961 21.9621 45.1168 24.1113 42.2721 25.3707C38.8405 26.745 34.9139 25.5984 32.7605 22.5949C31.783 21.2352 31.3214 19.5727 31.453 17.9038C31.6451 14.6372 33.3537 12.4086 36.3049 11.1053C37.2427 10.7168 38.2536 10.5351 39.2666 10.5727L39.2687 10.5706ZM43.1535 18.1754C43.1452 17.954 43.1264 17.7326 43.093 17.5133C43.0491 17.2334 42.9781 16.9598 42.8778 16.6945C42.1405 14.6936 39.9203 13.6702 37.9194 14.4096C37.2928 14.6414 36.7352 15.032 36.3049 15.5437C35.4423 16.5609 35.1269 17.9331 35.4632 19.2239C35.8579 21.3083 37.8672 22.6764 39.9517 22.2816C40.3631 22.2043 40.7579 22.0581 41.1213 21.8535C42.4538 21.1224 43.2433 19.6896 43.1535 18.1733V18.1754Z" fill="#2E9092"/>
</g>
<defs>
<clipPath id="clip0_2110_15365">
<rect width="92.2175" height="32" fill="white"/>
</clipPath>
</defs>
</svg>
