<svg width="232" height="265" viewBox="0 0 232 265" fill="none" xmlns="http://www.w3.org/2000/svg">
<g clip-path="url(#clip0_4593_14815)">
<path d="M157.462 78.3119L152.614 264.6H84.4056L79.5576 78.3119C79.5576 75.7679 80.9496 73.3679 83.2536 71.9279L104.566 61.7039V55.3199H132.502V61.7039L153.814 71.9279C156.118 73.3679 157.51 75.7679 157.51 78.3119H157.462Z" fill="#A2BD3A"/>
<path d="M132.501 33.3839H104.565V55.2719H132.501V33.3839Z" fill="#E6E6E5"/>
<path d="M104.52 33.3842H132.504V15.0002C132.504 14.3282 131.448 13.8002 130.104 13.8002H106.872C105.576 13.8002 104.472 14.3282 104.472 15.0002V33.3842H104.52Z" fill="#262626"/>
<path d="M134.9 1.75195V23.6399H114.212V1.51195C114.212 0.839951 115.412 0.311951 116.852 0.311951H132.116C133.652 0.311951 134.9 0.935951 134.9 1.70395V1.75195Z" fill="#262626"/>
<path d="M97.3174 218.136V107.16C97.3174 104.616 99.4294 102.36 102.549 101.688C112.677 99.48 123.285 99.72 134.277 101.832C137.493 102.456 139.749 104.76 139.749 107.4V218.28" fill="#DCE57C"/>
<path d="M116.852 0.311951C115.412 0.311951 114.212 0.839951 114.212 1.51195V23.6399H102.212V1.75195C102.212 1.31995 102.596 0.839951 103.412 0.599951C103.556 0.599951 103.748 0.503951 103.94 0.455951C104.42 0.359951 104.996 0.311951 105.62 0.359951H116.852V0.311951Z" fill="#2D2D2D"/>
<path opacity="0.2" d="M90.5495 78.3119L95.3975 264.6H84.4535L79.6055 78.3119C79.6055 75.7679 80.9975 73.3679 83.2535 71.9279L104.565 61.6559V23.5919H114.213V33.3839H115.557V61.6559L94.2455 71.9279C91.9895 73.3199 90.5975 75.7199 90.5975 78.3119H90.5495Z" fill="#808285"/>
<path d="M92.906 180.792C91.082 195.192 79.418 264.6 79.418 264.6H14.474C14.474 264.6 2.76199 195.192 0.985989 180.792C-0.790011 166.392 28.058 150.168 28.058 150.168L29.834 125.112H64.106L65.882 150.168C65.882 150.168 94.73 166.392 92.954 180.792H92.906Z" fill="#1D1D1D"/>
<path d="M72.6482 81.864V93.576L64.0562 97.656V108.936H29.7842V97.656L21.2402 93.576V81.864H72.6482Z" fill="#131313"/>
<path opacity="0.05" d="M44.7602 97.656V125.112H29.7842V97.656L21.2402 93.576V81.864H36.2162V93.576L44.7602 97.656Z" fill="#81818D"/>
<path d="M78.1698 239.352H15.1938L10.0098 198.504C31.7538 181.896 56.3778 181.896 83.9298 198.504L78.2178 239.352H78.1698Z" fill="#FFD455"/>
<path opacity="0.05" d="M15.9141 180.792C17.7381 195.24 29.4021 264.6 29.4021 264.6H14.4261C14.4261 264.6 2.76212 195.24 0.986115 180.792C-0.789885 166.392 28.0101 150.168 28.0101 150.168L29.7861 125.112H44.7621L42.9861 150.168C42.9861 150.168 14.1381 166.392 15.9621 180.792H15.9141Z" fill="#81818D"/>
<path d="M64.105 108.888H29.833V125.064H64.105V108.888Z" fill="#FFD455"/>
<path d="M172.054 264.6C171.43 264.504 170.758 264.408 170.182 264.312C170.518 264.36 171.238 264.456 172.054 264.6Z" fill="#5E0517"/>
<path d="M215.352 264.6H155.88C155.88 263.304 159.048 261.816 159.048 261.816L181.128 253.848V217.08C181.128 214.2 175.416 212.712 172.104 212.088C176.136 212.664 180.6 212.952 185.592 212.952C190.584 212.952 194.952 212.664 198.936 212.136C195.624 212.76 190.056 214.248 190.056 217.08V253.848L212.136 261.816C212.136 261.816 215.304 263.304 215.304 264.6H215.352Z" fill="#E6E6E5"/>
<path d="M201.334 211.752C201.334 211.752 201.238 211.752 201.142 211.752C200.902 211.752 200.422 211.848 199.798 211.944C199.606 211.944 199.366 211.992 199.174 212.04H199.078C199.078 212.04 199.078 212.04 198.982 212.04C194.998 212.568 190.582 212.856 185.638 212.856C180.694 212.856 176.182 212.568 172.15 211.992C172.15 211.992 172.102 211.992 172.054 211.992C171.526 211.896 171.046 211.8 170.71 211.752C170.566 211.752 170.47 211.752 170.374 211.704C170.278 211.704 170.23 211.704 170.182 211.704C170.182 211.704 170.038 211.704 169.99 211.704C139.222 206.52 137.398 185.448 141.382 168.504H230.086C234.07 185.448 232.198 206.52 201.478 211.704L201.334 211.752Z" fill="#511C10"/>
<path d="M201.094 211.8C200.47 211.896 199.798 212.04 199.126 212.088C200.038 211.944 200.758 211.8 201.094 211.8Z" fill="#5E0517"/>
<path d="M229.94 168.552H141.236C144.116 156.168 150.116 146.04 150.116 146.04L159.188 124.392H211.94L221.012 146.04C221.012 146.04 227.012 156.168 229.892 168.552H229.94Z" fill="#E6E6E5"/>
<g opacity="0.1">
<g opacity="0.2">
<path d="M186.553 216.744V253.464L167.641 261.768C167.641 261.768 164.473 263.256 164.473 264.552H155.881C155.881 263.256 159.049 261.768 159.049 261.768L181.177 253.8V217.08C181.177 214.2 175.465 212.712 172.201 212.088C175.801 212.568 179.737 212.856 184.105 212.952C186.937 213.72 186.601 214.68 186.601 216.744H186.553Z" fill="#808285"/>
</g>
<path d="M172.15 212.136H172.054C171.526 212.04 171.094 211.944 170.71 211.896C170.566 211.896 170.47 211.8 170.326 211.8C170.23 211.8 170.23 211.8 170.134 211.8C170.134 211.8 169.99 211.8 169.942 211.8C139.174 206.616 137.35 185.544 141.334 168.6H149.926C145.942 185.544 147.766 206.616 178.534 211.8C178.534 211.8 178.63 211.8 178.726 211.8H178.822C178.822 211.8 178.918 211.8 179.014 211.8C179.11 211.8 179.206 211.8 179.35 211.896C179.734 211.896 180.214 211.992 180.742 212.136H180.838" fill="#808285"/>
<path d="M201.094 211.8C200.47 211.896 199.798 212.04 199.126 212.088C200.038 211.944 200.758 211.8 201.094 211.8Z" fill="#808285"/>
<path d="M167.784 124.392L158.76 146.04C158.76 146.04 152.76 156.168 149.88 168.552H141.288C144.216 156.168 150.168 146.04 150.168 146.04L159.24 124.392H167.784Z" fill="#808285"/>
</g>
<g opacity="0.1">
<path d="M209.683 211.8C209.059 211.896 208.387 212.04 207.715 212.088C208.627 211.944 209.347 211.8 209.683 211.8Z" fill="#5E0517"/>
</g>
</g>
<defs>
<clipPath id="clip0_4593_14815">
<rect width="230.592" height="264.288" fill="white" transform="translate(0.887695 0.311981)"/>
</clipPath>
</defs>
</svg>
