<svg width="153" height="48" viewBox="0 0 153 48" fill="none" xmlns="http://www.w3.org/2000/svg">
<g clip-path="url(#clip0_2186_14993)">
<path d="M147.743 47.7807H5.05981C2.44395 47.7807 0.303711 45.6405 0.303711 43.0246V4.97582C0.303711 2.35997 2.44395 0.219727 5.05981 0.219727H147.743C150.359 0.219727 152.499 2.35997 152.499 4.97582V43.0246C152.499 45.6405 150.359 47.7807 147.743 47.7807Z" fill="black"/>
<path fill-rule="evenodd" clip-rule="evenodd" d="M11.9561 23.5246V11.0399C11.9561 10.3264 12.5506 9.73193 13.1451 9.73193C13.7396 9.73193 13.9774 9.85084 14.3341 10.0886L37.2823 22.6923C37.7579 22.9301 37.9957 23.2868 37.9957 23.6435C37.9957 24.0002 37.7579 24.3569 37.2823 24.5947L14.3341 37.1984C14.0963 37.3173 13.7396 37.5551 13.1451 37.5551C12.5506 37.5551 11.9561 36.9606 11.9561 36.2472V23.5246Z" fill="url(#paint0_linear_2186_14993)"/>
<path fill-rule="evenodd" clip-rule="evenodd" d="M26.8188 23.6435L12.9072 9.73193C13.0261 9.73193 13.0261 9.73193 13.145 9.73193C13.7395 9.73193 13.9773 9.85084 14.3341 10.0886L31.2182 19.363L26.8188 23.6435Z" fill="url(#paint1_linear_2186_14993)"/>
<path fill-rule="evenodd" clip-rule="evenodd" d="M31.0998 27.8051L26.8193 23.5246L31.2187 19.1252L37.2828 22.4545C37.7584 22.6923 37.9962 23.049 37.9962 23.4057C37.9962 23.7624 37.7584 24.1191 37.2828 24.357L31.0998 27.8051Z" fill="url(#paint2_linear_2186_14993)"/>
<path fill-rule="evenodd" clip-rule="evenodd" d="M13.0264 37.3174L26.8191 23.5247L31.0995 27.8052L14.3343 36.9606C13.9776 37.1984 13.7398 37.3174 13.0264 37.3174C13.1453 37.3174 13.1453 37.3174 13.0264 37.3174Z" fill="url(#paint3_linear_2186_14993)"/>
<path fill-rule="evenodd" clip-rule="evenodd" d="M84.8436 40.5278C84.2491 40.0522 83.7735 39.2199 83.5357 38.7443L85.4381 37.9119C85.557 38.1498 85.7948 38.5065 86.0326 38.8632C86.5082 39.3388 87.2217 39.8144 87.9351 39.8144C88.6485 39.8144 89.4808 39.4577 89.9564 38.8632C90.3131 38.2687 90.5509 37.6741 90.5509 36.8418V36.1284C89.1241 37.9119 86.1515 37.6741 84.4869 35.7717C82.7033 33.8693 82.7033 30.6589 84.4869 28.7565C86.2704 26.9729 88.8863 26.7351 90.432 28.3998V27.5674H92.4533V36.4851C92.4533 38.7443 91.621 40.0522 90.5509 40.8845C89.8375 41.479 88.7674 41.7168 87.8162 41.7168C86.746 41.5979 85.6759 41.2412 84.8436 40.5278ZM134.664 41.0034L136.685 36.2473L133.118 28.043H135.139L137.636 33.8693L140.133 28.043H142.155L136.685 41.0034H134.664ZM125.033 36.4851C124.438 35.8906 124.2 35.0583 124.2 34.226C124.2 33.5126 124.438 32.7991 124.914 32.3235C125.746 31.4912 126.935 31.1345 128.243 31.1345C129.075 31.1345 129.789 31.2534 130.383 31.6101C130.383 30.1833 129.194 29.5888 128.243 29.5888C127.411 29.5888 126.578 30.0644 126.222 30.8967L124.438 30.1833C124.795 29.351 125.746 27.8052 128.124 27.8052C129.313 27.8052 130.502 28.1619 131.216 28.9943C131.929 29.8266 132.167 30.7778 132.167 32.0857V37.0796H130.145V36.2473C129.908 36.604 129.432 36.8418 129.075 37.0796C128.6 37.3174 128.005 37.4363 127.411 37.4363C126.697 37.3174 125.627 37.0796 125.033 36.4851ZM61.6576 32.2046C61.6576 29.8266 63.4412 27.2107 66.6515 27.2107C69.743 27.2107 71.6454 29.8266 71.6454 32.2046C71.6454 34.5827 69.8619 37.1985 66.6515 37.1985C63.4412 37.1985 61.6576 34.5827 61.6576 32.2046ZM72.3588 32.2046C72.3588 29.8266 74.1424 27.2107 77.3527 27.2107C80.4442 27.2107 82.3466 29.8266 82.3466 32.2046C82.3466 34.5827 80.5631 37.1985 77.3527 37.1985C74.2613 37.1985 72.3588 34.5827 72.3588 32.2046ZM48.2216 34.8205C45.2491 31.8479 45.368 26.9729 48.3405 23.8815C49.8863 22.3357 51.7887 21.6223 53.8101 21.6223C55.7125 21.6223 57.6149 22.3357 59.0418 23.7626L57.6149 25.3083C55.4747 23.168 52.0265 23.2869 50.0052 25.4272C47.8649 27.6863 47.8649 31.1345 50.0052 33.3937C52.1454 35.6528 55.7125 35.7717 57.8527 33.5126C58.5661 32.7991 58.804 31.8479 58.9229 30.8967H53.929V28.7565H60.9442C61.0631 29.2321 61.0631 29.8266 61.0631 30.4211C61.0631 32.2046 60.3497 33.9882 59.1607 35.1772C57.8527 36.4851 55.9503 37.1985 54.0479 37.1985C51.9076 37.0796 49.7674 36.3662 48.2216 34.8205ZM98.5174 35.6528C96.7338 33.7504 96.7338 30.54 98.5174 28.5187C100.301 26.6162 103.273 26.6162 104.938 28.5187C105.533 29.1132 105.889 29.9455 106.246 30.7778L99.7064 33.5126C100.063 34.3449 100.895 35.0583 102.084 35.0583C103.155 35.0583 103.868 34.7016 104.581 33.6315L106.365 34.8205C106.127 35.0583 105.889 35.2961 105.77 35.5339C103.749 37.5552 100.301 37.5552 98.5174 35.6528ZM110.883 37.0796V23.8815H115.164C117.661 23.8815 119.682 25.665 119.682 27.8052C119.682 29.9455 117.898 31.729 115.639 31.729H113.023V36.9607H110.883V37.0796ZM120.871 37.0796V23.8815H122.892V37.0796H120.871ZM93.9991 36.8418V22.0979H96.1393V36.8418H93.9991ZM130.264 33.1559C129.789 32.7991 129.075 32.6802 128.362 32.6802C126.935 32.6802 126.103 33.3937 126.103 34.226C126.103 35.0583 126.935 35.5339 127.767 35.5339C128.956 35.5339 130.264 34.5827 130.264 33.1559ZM69.3863 32.2046C69.3863 30.7778 68.4351 29.2321 66.6515 29.2321C64.868 29.2321 63.9168 30.7778 63.9168 32.2046C63.9168 33.6315 64.868 35.1772 66.6515 35.1772C68.3162 35.1772 69.3863 33.6315 69.3863 32.2046ZM80.0875 32.2046C80.0875 30.7778 79.1363 29.2321 77.3527 29.2321C75.5692 29.2321 74.618 30.7778 74.618 32.2046C74.618 33.6315 75.5692 35.1772 77.3527 35.1772C79.1363 35.1772 80.0875 33.6315 80.0875 32.2046ZM90.6698 33.0369C90.6698 32.918 90.6698 32.7991 90.7887 32.6802C90.7887 32.5613 90.7887 32.3235 90.7887 32.2046C90.7887 32.0857 90.7887 31.8479 90.7887 31.729V31.6101C90.7887 31.4912 90.6698 31.2534 90.6698 31.1345C90.3131 29.9455 89.243 29.1132 88.1729 29.1132C86.746 29.1132 85.557 30.54 85.557 32.0857C85.557 33.7504 86.746 35.0583 88.2918 35.0583C89.243 35.1772 90.1942 34.3449 90.6698 33.0369ZM99.3497 31.9668L103.749 30.0644C103.273 29.2321 102.56 28.9943 101.966 28.9943C100.182 29.1132 99.1119 31.0156 99.3497 31.9668ZM117.542 27.9241C117.542 26.7351 116.591 25.9028 115.283 25.9028H112.905V30.0644H115.401C116.591 30.0644 117.542 29.1132 117.542 27.9241Z" fill="white"/>
<path fill-rule="evenodd" clip-rule="evenodd" d="M136.209 38.6254H136.09V38.5066H136.209H136.09V38.6254H136.209Z" fill="white"/>
<path fill-rule="evenodd" clip-rule="evenodd" d="M136.447 38.6254C136.447 38.5066 136.447 38.5066 136.447 38.6254C136.328 38.5066 136.328 38.5066 136.447 38.6254C136.328 38.6254 136.328 38.6254 136.447 38.6254ZM136.447 38.5066C136.447 38.6254 136.447 38.6254 136.447 38.5066C136.328 38.6254 136.447 38.6254 136.447 38.5066C136.447 38.5066 136.328 38.5066 136.447 38.5066Z" fill="white"/>
<path fill-rule="evenodd" clip-rule="evenodd" d="M136.566 38.5066H136.447H136.566V38.6254V38.5066Z" fill="white"/>
<path d="M46.5566 12.2289C46.5566 10.0887 48.1024 8.78076 50.0048 8.78076C51.3127 8.78076 52.1451 9.37527 52.7396 10.2076L51.7884 10.8021C51.4317 10.3265 50.8371 9.96979 50.0048 9.96979C48.6969 9.96979 47.7457 10.921 47.7457 12.3478C47.7457 13.7747 48.6969 14.7259 50.0048 14.7259C50.7182 14.7259 51.3128 14.3692 51.5506 14.1314V13.0613H49.6481V11.9911H52.8585V14.4881C52.264 15.2015 51.3127 15.6771 50.1237 15.6771C48.1024 15.6771 46.5566 14.2503 46.5566 12.2289Z" fill="white"/>
<path d="M54.2852 15.5582V8.89966H58.8035V9.96978H55.3553V11.6344H58.6846V12.7045H55.3553V14.607H58.8035V15.6771L54.2852 15.5582Z" fill="white"/>
<path d="M62.1327 15.5582V9.96978H60.1113V8.89966H65.343V9.96978H63.3217V15.5582H62.1327Z" fill="white"/>
<path d="M69.3857 15.5582V8.89966H70.5748V15.5582H69.3857Z" fill="white"/>
<path d="M73.785 15.5582V9.96978H71.7637V8.89966H76.9954V9.96978H74.974V15.5582H73.785Z" fill="white"/>
<path d="M80.8008 12.2289C80.8008 10.2076 82.2276 8.78076 84.249 8.78076C86.2703 8.78076 87.6971 10.2076 87.6971 12.2289C87.6971 14.2503 86.2703 15.6771 84.249 15.6771C82.2276 15.6771 80.8008 14.1314 80.8008 12.2289ZM86.3892 12.2289C86.3892 10.8021 85.5569 9.85088 84.1301 9.85088C82.8221 9.85088 81.8709 10.921 81.8709 12.2289C81.8709 13.6558 82.7032 14.607 84.1301 14.607C85.5569 14.607 86.3892 13.5369 86.3892 12.2289Z" fill="white"/>
<path d="M93.6421 15.5582L90.1939 10.8021V15.5582H89.0049V8.89966H90.1939L93.6421 13.5369V8.89966H94.8311V15.5582H93.6421Z" fill="white"/>
</g>
<defs>
<linearGradient id="paint0_linear_2186_14993" x1="19.6459" y1="8.03591" x2="26.3023" y2="35.3726" gradientUnits="userSpaceOnUse">
<stop stop-color="#006884"/>
<stop offset="1" stop-color="#8AD1D0"/>
</linearGradient>
<linearGradient id="paint1_linear_2186_14993" x1="11.5288" y1="11.9243" x2="29.6685" y2="21.7307" gradientUnits="userSpaceOnUse">
<stop stop-color="#24BBB6"/>
<stop offset="1" stop-color="#DBE692"/>
</linearGradient>
<linearGradient id="paint2_linear_2186_14993" x1="32.4011" y1="28.3046" x2="32.4011" y2="18.8538" gradientUnits="userSpaceOnUse">
<stop stop-color="#FCC072"/>
<stop offset="1" stop-color="#F58A5B"/>
</linearGradient>
<linearGradient id="paint3_linear_2186_14993" x1="15.0414" y1="39.7776" x2="29.3712" y2="25.1939" gradientUnits="userSpaceOnUse">
<stop stop-color="#712B8F"/>
<stop offset="1" stop-color="#EA1D27"/>
</linearGradient>
<clipPath id="clip0_2186_14993">
<rect width="152.195" height="48" fill="white" transform="translate(0.303711)"/>
</clipPath>
</defs>
</svg>
